<svg width="90" height="90" viewBox="0 0 90 90" fill="none" xmlns="http://www.w3.org/2000/svg">
<path d="M0 5C0 2.23858 2.23858 0 5 0H85C87.7614 0 90 2.23858 90 5V85C90 87.7614 87.7614 90 85 90H5C2.23858 90 0 87.7614 0 85V5Z" fill="white"/>
<rect x="21" y="20" width="50" height="50" fill="#F7DF1D"/>
<path d="M64.9613 50.6708C64.6151 49.7805 63.1791 48 60.205 48C56.4875 48 55.0661 50.4527 55.1207 52.5785C55.1754 54.7042 56.2141 56.3393 58.4009 57.2659C58.6492 57.3712 58.8954 57.4729 59.1368 57.5726C61.021 58.3509 62.6105 59.0075 62.6105 60.2637C62.6105 61.6809 60.9704 61.8989 60.3144 61.8989C59.6583 61.8989 58.6743 61.8444 57.8542 61.0813C57.1982 60.4709 56.8884 60.0639 56.8155 59.9367L54.1367 61.5174C54.5558 62.662 56.3781 64.9512 60.3144 64.9512C65.2346 64.9512 66 61.7354 66 60.2637C66 58.7921 65.7813 56.7209 62.3371 55.2492C58.8929 53.7776 58.5103 53.3415 58.5103 52.4149C58.5103 51.4884 59.1663 50.8888 60.4784 50.9433C61.6811 50.9933 62.3371 52.3604 62.3371 52.3604L64.9613 50.6708Z" fill="black"/>
<path d="M48.779 48.1635H52.2232V60.2092C52.2232 62.989 50.4738 64.9512 46.9749 64.9512C44.1759 64.9512 42.492 62.9527 42 61.9534L44.7335 60.2092C44.9522 60.7906 45.7066 61.9534 46.9749 61.9534C48.5604 61.9534 48.779 60.6998 48.779 60.3728V48.1635Z" fill="black"/>
</svg>
