<svg width="40" height="40" viewBox="0 0 40 40" fill="none" xmlns="http://www.w3.org/2000/svg">
<path d="M0 5C0 2.23858 2.23858 0 5 0H35C37.7614 0 40 2.23858 40 5V35C40 37.7614 37.7614 40 35 40H5C2.23858 40 0 37.7614 0 35V5Z" fill="white"/>
<path fill-rule="evenodd" clip-rule="evenodd" d="M19.9703 15.1714C24.8786 15.1714 28.8891 19.1133 28.8891 23.9377C28.8891 28.7032 24.8786 32.6451 19.9703 32.6451C15.0619 32.6451 11.1113 28.7032 11.1113 23.9377C11.1113 19.1133 15.0619 15.1714 19.9703 15.1714ZM13.3261 16.6422C13.3261 16.6422 13.8648 16.1716 14.3437 15.8186C14.8225 15.4656 15.3612 15.1714 15.3612 15.1714C15.3612 15.1714 15.4211 10.9353 15.3612 10.2882C15.3612 9.69982 15.9 9.17031 16.5584 9.17031C17.2767 9.17031 22.8435 9.17031 23.3822 9.17031C23.9808 9.17031 24.5793 9.69982 24.5793 10.4058C24.5793 11.1118 24.5793 12.2885 24.5793 12.2885L26.6744 12.3474C26.6744 12.3474 26.6744 11.5825 26.6744 10.2882C26.6744 8.93497 25.5371 7.11111 23.3822 7.11111C21.1674 7.11111 19.0724 7.11111 16.7978 7.11111C14.4634 7.11111 13.2662 8.8173 13.2662 10.347C13.2662 11.9355 13.3261 16.6422 13.3261 16.6422ZM19.9703 18.7014C22.9033 18.7014 25.2976 21.0548 25.2976 23.9377C25.2976 26.7617 22.9033 29.1151 19.9703 29.1151C17.0971 29.1151 14.7028 26.7617 14.7028 23.9377C14.7028 21.0548 17.0971 18.7014 19.9703 18.7014ZM19.9703 20.996C20.9879 20.996 21.8259 21.7608 21.8259 22.761C21.8259 23.3493 21.4667 23.9377 21.0477 24.2318V26.8205H18.9527V24.2318C18.4738 23.9377 18.1746 23.3493 18.1746 22.761C18.1746 21.7608 19.0126 20.996 19.9703 20.996ZM19.9703 17.2306C23.7413 17.2306 26.7941 20.2311 26.7941 23.9377C26.7941 27.5854 23.7413 30.5859 19.9703 30.5859C16.1992 30.5859 13.1465 27.5854 13.1465 23.9377C13.1465 20.2311 16.1992 17.2306 19.9703 17.2306Z" fill="#3BBBBC"/>
</svg>
