<svg width="90" height="90" viewBox="0 0 90 90" fill="none" xmlns="http://www.w3.org/2000/svg">
<path d="M0 5C0 2.23858 2.23858 0 5 0H85C87.7614 0 90 2.23858 90 5V85C90 87.7614 87.7614 90 85 90H5C2.23858 90 0 87.7614 0 85V5Z" fill="white"/>
<path fill-rule="evenodd" clip-rule="evenodd" d="M44.9327 34.1356C55.9764 34.1356 65 43.0049 65 53.8598C65 64.5823 55.9764 73.4515 44.9327 73.4515C33.8889 73.4515 25 64.5823 25 53.8598C25 43.0049 33.8889 34.1356 44.9327 34.1356ZM29.9832 37.445C29.9832 37.445 31.1953 36.386 32.2727 35.5918C33.3502 34.7975 34.5623 34.1356 34.5623 34.1356C34.5623 34.1356 34.697 24.6045 34.5623 23.1483C34.5623 21.8246 35.7744 20.6332 37.2559 20.6332C38.8721 20.6332 51.3973 20.6332 52.6094 20.6332C53.9562 20.6332 55.303 21.8246 55.303 23.4131C55.303 25.0016 55.303 27.6492 55.303 27.6492L60.0168 27.7815C60.0168 27.7815 60.0168 26.0606 60.0168 23.1483C60.0168 20.1037 57.4579 16 52.6094 16C47.6263 16 42.9125 16 37.7946 16C32.5421 16 29.8485 19.8389 29.8485 23.2807C29.8485 26.8549 29.9832 37.445 29.9832 37.445ZM44.9327 42.0782C51.532 42.0782 56.9192 47.3733 56.9192 53.8598C56.9192 60.2138 51.532 65.5089 44.9327 65.5089C38.468 65.5089 33.0808 60.2138 33.0808 53.8598C33.0808 47.3733 38.468 42.0782 44.9327 42.0782ZM44.9327 47.2409C47.2222 47.2409 49.1077 48.9618 49.1077 51.2122C49.1077 52.536 48.2997 53.8598 47.3569 54.5216V60.3462H42.6431V54.5216C41.5657 53.8598 40.8923 52.536 40.8923 51.2122C40.8923 48.9618 42.7778 47.2409 44.9327 47.2409ZM44.9327 38.7688C53.4175 38.7688 60.2862 45.52 60.2862 53.8598C60.2862 62.0671 53.4175 68.8183 44.9327 68.8183C36.4478 68.8183 29.5791 62.0671 29.5791 53.8598C29.5791 45.52 36.4478 38.7688 44.9327 38.7688Z" fill="#3BBBBC"/>
</svg>
