<svg width="90" height="90" viewBox="0 0 90 90" fill="none" xmlns="http://www.w3.org/2000/svg">
<path d="M0 5C0 2.23858 2.23858 0 5 0H85C87.7614 0 90 2.23858 90 5V85C90 87.7614 87.7614 90 85 90H5C2.23858 90 0 87.7614 0 85V5Z" fill="white"/>
<path d="M26.6535 30.9634C26.6724 30.606 26.7735 30.5288 26.9427 30.3996C26.9666 30.3813 26.9919 30.362 27.0185 30.3407L37.0882 25.5313L27.083 20.4213C26.7824 20.2496 26.7394 20.0993 26.7394 19.906V17.8234C26.7394 17.5872 26.8038 17.394 27.0185 17.2651C27.2332 17.1363 31.1409 15.1825 31.3341 15.0966C31.5274 15.0107 31.785 15.0107 31.9568 15.0966C32.0942 15.1653 40.7025 19.4337 44.9894 21.5593C49.169 19.448 57.5755 15.1997 57.7644 15.0966C58.0006 14.9678 58.3226 14.9678 58.5588 15.0966C58.795 15.2254 62.445 17.0504 62.7885 17.2222C63.1321 17.394 63.1321 17.5443 63.1321 17.7804V19.7987C63.1321 20.1595 62.9852 20.2475 62.7745 20.3739C62.7745 20.3739 54.5603 24.6409 52.8047 25.5528L62.9603 30.4266C63.2179 30.5554 63.2394 30.7057 63.2394 30.9204V33.0675C63.2394 33.4325 63.0676 33.5398 62.8744 33.6472C61.4236 34.4532 59.8972 35.0884 58.4515 35.9016C58.1467 36.073 57.9938 36.0078 57.7084 35.886C57.6721 35.8705 57.6338 35.8541 57.5926 35.8372C57.3007 35.717 49.0688 31.5216 44.9894 29.439C40.9028 31.5073 32.6395 35.6826 32.2788 35.8372C31.8465 36.0225 31.6905 35.9511 31.4701 35.8503C31.4648 35.8479 31.4594 35.8454 31.454 35.8429C31.4499 35.841 31.4457 35.8391 31.4415 35.8372C29.3491 34.8861 29.6844 35.0338 26.9541 33.6687C26.6535 33.5184 26.6535 33.3466 26.6535 33.1748C26.6535 33.1404 26.6527 33.047 26.6515 32.9167C26.6467 32.3973 26.6364 31.2894 26.6535 30.9634Z" fill="#243947"/>
<path d="M26.0524 43.5666C25.6945 43.8386 24.9831 44.6487 25.0003 45.7137C25.0181 46.8153 25.0064 62.9596 25.0019 69.2611V69.2612L25.0019 69.2617C25.0009 70.5744 25.0003 71.4599 25.0003 71.6931C25.0003 73.0457 26.0738 74.4628 27.4909 74.4842C28.908 74.5057 61.1353 74.5057 62.4665 74.4842C63.7976 74.4628 65 73.3248 65 71.9078V45.6922C65 44.7475 64.3988 43.8672 64.0982 43.5451C64.0982 43.5451 63.4274 42.944 62.3102 42.944C61.1931 42.944 27.7485 42.944 27.7485 42.944C26.8824 42.944 26.0524 43.5666 26.0524 43.5666Z" fill="#243947"/>
<path fill-rule="evenodd" clip-rule="evenodd" d="M31.0269 21.3382C31.3805 21.3705 31.6409 21.6833 31.6086 22.0368L29.6803 43.1557C29.6481 43.5092 29.3353 43.7696 28.9818 43.7374C28.6283 43.7051 28.3679 43.3924 28.4002 43.0388L30.3284 21.9199C30.3607 21.5664 30.6734 21.306 31.0269 21.3382Z" fill="#243947"/>
<path fill-rule="evenodd" clip-rule="evenodd" d="M30.5622 33.9603C30.8923 34.091 31.0538 34.4645 30.9231 34.7946L27.2503 44.0685C27.1196 44.3986 26.7461 44.5602 26.416 44.4295C26.086 44.2988 25.9244 43.9252 26.0551 43.5952L29.728 34.3212C29.8587 33.9912 30.2322 33.8296 30.5622 33.9603Z" fill="#243947"/>
<path fill-rule="evenodd" clip-rule="evenodd" d="M59.1913 21.3382C58.8378 21.3705 58.5774 21.6833 58.6097 22.0368L60.5379 43.1557C60.5702 43.5092 60.8829 43.7696 61.2365 43.7374C61.59 43.7051 61.8504 43.3924 61.8181 43.0388L59.8898 21.9199C59.8576 21.5664 59.5448 21.306 59.1913 21.3382Z" fill="#243947"/>
<path fill-rule="evenodd" clip-rule="evenodd" d="M59.6556 33.9603C59.3255 34.091 59.1639 34.4645 59.2946 34.7946L62.9675 44.0685C63.0982 44.3986 63.4717 44.5602 63.8018 44.4295C64.1318 44.2988 64.2934 43.9252 64.1627 43.5952L60.4898 34.3212C60.3591 33.9912 59.9856 33.8296 59.6556 33.9603Z" fill="#243947"/>
<path d="M31.6991 16.1481L28.5644 17.6296C32.5651 19.6192 40.6352 23.6414 40.91 23.8131C41.2536 24.0279 41.1462 24.672 40.8671 24.8008C40.6438 24.9039 32.558 28.9947 28.543 31.0273L31.6777 32.5946C35.9002 30.4833 44.3926 26.2307 44.5815 26.1105C44.8177 25.9602 45.1397 26.0031 45.3544 26.1105C45.5262 26.1964 53.9713 30.4977 58.1724 32.6376L61.3715 31.0487C57.4782 29.0878 49.5927 25.1143 49.1977 24.9081C48.7038 24.6505 48.7683 24.0493 49.1977 23.8346C49.5412 23.6629 57.5283 19.6836 61.4788 17.7155L58.1724 16.1267C54.0142 18.2523 45.6378 22.5335 45.3974 22.6537C45.0968 22.804 44.8821 22.7611 44.6674 22.6537C44.4956 22.5679 35.9503 18.2809 31.6991 16.1481Z" fill="#01D8A2"/>
<path d="M27.7915 19.6697V18.5962L39.3427 24.3503L38.3532 24.9085L27.7915 19.6697Z" fill="#01D8A2"/>
<path d="M62.187 19.6267V18.5532L50.6358 24.3073L51.6253 24.8655L62.187 19.6267Z" fill="#0AAB82"/>
<path d="M27.8345 32.9388V31.9511L31.1195 33.6473V34.6135L27.8345 32.9388Z" fill="#00D8A2"/>
<path d="M32.2148 34.6133V33.6686L44.4745 27.4636V28.4942L32.2148 34.6133Z" fill="#0AAB82"/>
<path d="M45.5479 28.4722V27.4416L57.6573 33.5822V34.6343L45.5479 28.4722Z" fill="#02D8A4"/>
<path d="M58.7305 34.6348V33.6042L62.1443 31.8651V32.8956L58.7305 34.6348Z" fill="#0AAB82"/>
<path d="M25.9673 71.8218V48.7839L64.0346 48.8053V71.8003C64.0346 72.5947 63.4549 73.5609 62.5532 73.5395C61.6514 73.518 28.4149 73.5395 27.599 73.5395C26.7832 73.5395 25.9673 72.7665 25.9673 71.8218Z" fill="white"/>
<path fill-rule="evenodd" clip-rule="evenodd" d="M58.4299 61.6875L59.1384 62.074C58.9738 62.3817 58.417 62.9972 57.5067 62.9972C56.3687 62.9972 55.7031 62.2243 55.7031 61.0434C55.7031 59.8625 56.6049 59.2828 57.4637 59.2828C58.3225 59.2828 59.3102 59.8625 59.2243 61.2366H56.5405C56.5619 61.5515 56.7852 62.1813 57.5067 62.1813C58.1937 62.1813 58.4299 61.6875 58.4299 61.6875ZM56.5834 60.6569H58.3225C58.3011 60.4494 58.0992 60.0343 57.4637 60.0343C56.8282 60.0343 56.612 60.4494 56.5834 60.6569Z" fill="#243947"/>
<path d="M60.7709 62.8684H59.8691V59.3687H60.685V59.9055C60.821 59.6979 61.2003 59.2828 61.6297 59.2828C62.0591 59.2828 62.2667 59.383 62.3168 59.4331L61.9733 60.1416C61.8945 60.1202 61.6641 60.0901 61.3721 60.1416C61.0071 60.206 60.7709 60.5925 60.7709 60.8502V62.8684Z" fill="#243947"/>
<path fill-rule="evenodd" clip-rule="evenodd" d="M54.4372 61.6875L55.1457 62.074C54.9811 62.3817 54.4243 62.9972 53.514 62.9972C52.376 62.9972 51.7104 62.2243 51.7104 61.0434C51.7104 59.8625 52.6122 59.2828 53.471 59.2828C54.3299 59.2828 55.3175 59.8625 55.2316 61.2366H52.5478C52.5693 61.5515 52.7926 62.1813 53.514 62.1813C54.201 62.1813 54.4372 61.6875 54.4372 61.6875ZM52.5907 60.6569H54.3299C54.3084 60.4494 54.1066 60.0343 53.471 60.0343C52.8355 60.0343 52.6194 60.4494 52.5907 60.6569Z" fill="#243947"/>
<path d="M48.8979 60.142V59.3906H49.4777V58.2956H50.3579V59.3906H51.2382V60.142H50.3579V61.6235C50.3579 61.967 50.6156 62.1388 50.7874 62.1388C50.9248 62.1388 51.0736 62.0959 51.1309 62.0744L51.3241 62.8688C51.1309 62.9976 50.6213 63.0675 50.2506 62.9547C49.7568 62.8044 49.4777 62.4179 49.4777 61.8167V60.142H48.8979Z" fill="#243947"/>
<path fill-rule="evenodd" clip-rule="evenodd" d="M47.6735 61.6875L48.3821 62.074C48.2175 62.3817 47.6607 62.9972 46.7503 62.9972C45.6124 62.9972 44.9468 62.2243 44.9468 61.0434C44.9468 59.8625 45.8485 59.2828 46.7074 59.2828C47.5662 59.2828 48.5538 59.8625 48.468 61.2366H45.7841C45.8056 61.5515 46.0289 62.1813 46.7503 62.1813C47.4374 62.1813 47.6735 61.6875 47.6735 61.6875ZM45.8271 60.6569H47.5662C47.5447 60.4494 47.3429 60.0343 46.7074 60.0343C46.0718 60.0343 45.8557 60.4494 45.8271 60.6569Z" fill="#243947"/>
<path fill-rule="evenodd" clip-rule="evenodd" d="M40.8032 64.4142H41.6835V62.4389C41.7909 62.6107 42.0915 62.9972 42.7785 62.9972C43.487 62.9972 44.4318 62.4175 44.4318 61.0863C44.4318 59.7551 43.53 59.2613 42.7785 59.2613C42.1773 59.2613 41.7694 59.5834 41.6406 59.7981V59.3686H40.8032V64.4142ZM41.662 61.1078C41.662 61.6016 41.9412 62.1383 42.6282 62.1383C43.3153 62.1383 43.5085 61.5372 43.5085 61.1292C43.5085 60.7213 43.2723 60.1201 42.6282 60.1201C41.9841 60.1201 41.662 60.571 41.662 61.1078Z" fill="#243947"/>
<path fill-rule="evenodd" clip-rule="evenodd" d="M36.5093 64.4142H37.3896V62.4389C37.4969 62.6107 37.7975 62.9972 38.4846 62.9972C39.1931 62.9972 40.1378 62.4175 40.1378 61.0863C40.1378 59.7551 39.236 59.2613 38.4846 59.2613C37.8834 59.2613 37.4755 59.5834 37.3466 59.7981V59.3686H36.5093V64.4142ZM37.3681 61.1078C37.3681 61.6016 37.6472 62.1383 38.3343 62.1383C39.0213 62.1383 39.2146 61.5372 39.2146 61.1292C39.2146 60.7213 38.9784 60.1201 38.3343 60.1201C37.6902 60.1201 37.3681 60.571 37.3681 61.1078Z" fill="#243947"/>
<path d="M33.245 59.3478H32.3433V61.7096C32.3433 62.547 32.923 63.0193 33.6959 63.0193C34.3143 63.0193 34.6836 62.547 34.7909 62.3108V62.869H35.6068V59.3478H34.7265V61.3661C34.5977 61.8384 34.2756 62.139 33.9106 62.139C33.5456 62.139 33.245 61.9028 33.245 61.452V59.3478Z" fill="#243947"/>
<path fill-rule="evenodd" clip-rule="evenodd" d="M28.3501 62.8685V57.8015H30.3683C31.0339 57.8015 31.8713 58.3167 31.8713 59.3688C31.8713 60.4209 31.0339 60.9791 30.3683 60.9791H29.2948V62.8685H28.3501ZM29.3163 60.0773V58.7032H30.3254C30.7333 58.7032 30.9266 58.9823 30.9266 59.3903C30.9266 59.7982 30.7119 60.0773 30.3254 60.0773H29.3163Z" fill="#243947"/>
<path d="M25.9673 45.4132V47.9253L64.0561 47.9038V45.4132C64.0561 44.8335 63.4335 43.8888 62.5532 43.8888C61.6729 43.8888 28.4149 43.9103 27.5776 43.8888C26.7402 43.8673 25.9673 44.6403 25.9673 45.4132Z" fill="#DFDEDF"/>
<path d="M29.0802 45.9281C29.0802 46.2957 28.7822 46.5937 28.4146 46.5937C28.047 46.5937 27.749 46.2957 27.749 45.9281C27.749 45.5605 28.047 45.2625 28.4146 45.2625C28.7822 45.2625 29.0802 45.5605 29.0802 45.9281Z" fill="#243947"/>
<path d="M33.4602 45.9281C33.4602 46.2957 33.1622 46.5937 32.7946 46.5937C32.427 46.5937 32.129 46.2957 32.129 45.9281C32.129 45.5605 32.427 45.2625 32.7946 45.2625C33.1622 45.2625 33.4602 45.5605 33.4602 45.9281Z" fill="#243947"/>
<path d="M31.2702 45.9281C31.2702 46.2957 30.9722 46.5937 30.6046 46.5937C30.237 46.5937 29.939 46.2957 29.939 45.9281C29.939 45.5605 30.237 45.2625 30.6046 45.2625C30.9722 45.2625 31.2702 45.5605 31.2702 45.9281Z" fill="#243947"/>
</svg>
